# xmcd
#
# Track frame offsets:
#   150
#   11796
#   24728
#   34435
#   43208
#   48224
#   69411
#   76359
#   82638
#   91797
#   108669
#
# Disc length: 1755 seconds
#
# Revision: 0
# Processed by: cddbd v1.5.2PL0 Copyright (c) Steve Scherf et al.
# Submitted via: GXTranscoder 2.0.1939
#
DISCID=8306d90b
DTITLE=The Brett Family - Inspiration
DYEAR=1900
DGENRE=Country
TTITLE0=Come Follow me
TTITLE1=Softly and tenderly - In the garden
TTITLE2=You'll never walk alone
TTITLE3=Kum Ba Ya
TTITLE4=He's got the whole world in His hands
TTITLE5=His eye is on the sparrow
TTITLE6=Jesus said love everyone
TTITLE7=A mighty fortress
TTITLE8=How gentle God's command
TTITLE9=Danny boy
TTITLE10=You raise me up
EXTD=
EXTT0=
EXTT1=
EXTT2=
EXTT3=
EXTT4=
EXTT5=
EXTT6=
EXTT7=
EXTT8=
EXTT9=
EXTT10=
PLAYORDER=
